<svg xmlns="http://www.w3.org/2000/svg"  viewBox="0 0 80 80" width="80px" height="80px"><path fill="#dcd5f2" d="M40,75.5c-16.3,0-29.5-5.6-29.5-12.5V15.5h59v39.6c-1.8-1.6-4.1-2.6-6.5-2.6c-5.2,0-9.5,4.3-9.5,9.5 c0,4.8,3.6,8.8,8.2,9.4C56.1,74,48.3,75.5,40,75.5z"/><path fill="#8b75a1" d="M69,16v38c-1.7-1.3-3.8-2-6-2c-5.5,0-10,4.5-10,10c0,4.5,3,8.3,7.1,9.6C54.7,73.8,47.6,75,40,75 c-15.7,0-29-5.5-29-12V16H69 M70,15H10c0,2.6,0,45.4,0,48c0,7.2,13.4,13,30,13c9.6,0,18.2-2,23.7-5c-0.2,0-0.5,0-0.7,0 c-5,0-9-4-9-9s4-9,9-9c2.8,0,5.3,1.3,7,3.3C70,43.6,70,17,70,15L70,15z"/><path fill="#dcd5f2" d="M40,25.5c-16,0-29.5-4.8-29.5-10.5S24,4.5,40,4.5S69.5,9.3,69.5,15S56,25.5,40,25.5z"/><path fill="#8b75a1" d="M40 5c17.3 0 29 5.2 29 10S57.3 25 40 25s-29-5.2-29-10S22.7 5 40 5M40 4C23.4 4 10 8.9 10 15s13.4 11 30 11 30-4.9 30-11S56.6 4 40 4L40 4zM40 43c-16.8 0-30-5-30-11.3h1C11 37.3 24.3 42 40 42s29-4.7 29-10.3h1C70 38 56.8 43 40 43zM66.3 53.2l-.6-.8c2.2-1.7 3.3-3.7 3.3-5.7h1C70 49 68.7 51.2 66.3 53.2zM40 60c-16.8 0-30-5.8-30-13.3h1C11 53.5 24 59 40 59c4.9 0 9.7-.5 13.9-1.5l.2 1C49.8 59.5 44.9 60 40 60z"/><g><path fill="#8bb7f0" d="M60.4,79.5l-0.7-4.4L59.4,75c-2.2-0.6-4.2-1.8-5.8-3.4l-0.2-0.2L49.2,73l-2.6-4.5l3.4-2.9L50,65.4 c-0.3-1.1-0.4-2.3-0.4-3.4s0.1-2.2,0.4-3.4l0.1-0.3l-3.4-2.9l2.6-4.5l4.2,1.6l0.2-0.2c1.6-1.6,3.6-2.7,5.8-3.4l0.3-0.1l0.7-4.4h5.1 l0.7,4.4l0.3,0.1c2.2,0.6,4.2,1.8,5.8,3.4l0.2,0.2l4.2-1.6l2.6,4.5l-3.4,2.9l0.1,0.3c0.3,1.1,0.4,2.3,0.4,3.4s-0.1,2.2-0.4,3.4 l-0.1,0.3l3.4,2.9L76.8,73l-4.2-1.6l-0.2,0.2c-1.6,1.6-3.6,2.8-5.8,3.4l-0.3,0.1l-0.7,4.4L60.4,79.5L60.4,79.5z M63,54.5 c-4.1,0-7.5,3.4-7.5,7.5s3.4,7.5,7.5,7.5s7.5-3.4,7.5-7.5S67.1,54.5,63,54.5z"/><path fill="#4e7ab5" d="M65.1,45l0.6,3.7l0.1,0.6l0.6,0.2c2.1,0.6,4,1.7,5.6,3.2l0.5,0.4l0.6-0.2l3.5-1.3l2.1,3.7l-2.9,2.4 l-0.5,0.4l0.2,0.6c0.3,1.1,0.4,2.2,0.4,3.2c0,1.1-0.1,2.1-0.4,3.2l-0.2,0.6l0.5,0.4l2.9,2.4l-2.1,3.7l-3.5-1.3l-0.6-0.2L72,71.3 c-1.6,1.5-3.5,2.6-5.6,3.2l-0.6,0.2l-0.1,0.6L65.1,79h-4.3l-0.6-3.7l-0.1-0.6l-0.6-0.2c-2.1-0.6-4-1.7-5.6-3.2l-0.5-0.4l-0.6,0.2 l-3.5,1.3l-2.1-3.7l2.9-2.4l0.5-0.4l-0.2-0.6c-0.3-1.1-0.4-2.2-0.4-3.2s0.1-2.1,0.4-3.2l0.2-0.6l-0.5-0.4l-2.9-2.4l2.1-3.7l3.5,1.3 l0.6,0.2l0.5-0.4c1.5-1.5,3.5-2.6,5.6-3.2l0.6-0.2l0.1-0.6l0.6-3.7H65.1 M63,70c4.4,0,8-3.6,8-8s-3.6-8-8-8s-8,3.6-8,8 S58.6,70,63,70 M66,44h-6l-0.8,4.5c-2.3,0.6-4.4,1.9-6,3.5L49,50.4l-3,5.2l3.5,2.9c-0.3,1.1-0.5,2.3-0.5,3.5s0.2,2.4,0.5,3.5 L46,68.4l3,5.2l4.3-1.6c1.7,1.6,3.7,2.8,6,3.5L60,80h6l0.8-4.5c2.3-0.6,4.4-1.9,6-3.5l4.3,1.6l3-5.2l-3.5-2.9 c0.3-1.1,0.5-2.3,0.5-3.5s-0.2-2.4-0.5-3.5l3.5-2.9l-3-5.2L72.7,52c-1.7-1.6-3.7-2.8-6-3.5L66,44L66,44z M63,69c-3.9,0-7-3.1-7-7 s3.1-7,7-7s7,3.1,7,7S66.9,69,63,69L63,69z"/></g></svg>