<svg xmlns="http://www.w3.org/2000/svg"  viewBox="0 0 24 24" width="24px" height="24px"><path fill="#303C42" d="M20,1H2C0.8974609,1,0,1.8969727,0,3v19.5c0,0.2021484,0.1220703,0.3847656,0.3085938,0.4619141 C0.3701172,22.987793,0.4355469,23,0.5,23c0.1298828,0,0.2578125-0.0507812,0.3535156-0.1464844L5.7070312,18H20 c1.1025391,0,2-0.8969727,2-2V3C22,1.8969727,21.1025391,1,20,1z"/><path fill="#15BEF0" d="M21,16c0,0.5512695-0.4482422,1-1,1H5.5c-0.1328125,0-0.2597656,0.0527344-0.3535156,0.1464844 L1,21.2929688V3c0-0.5512695,0.4482422-1,1-1h18c0.5517578,0,1,0.4487305,1,1V16z"/><path d="M20,2v11.5236816C20,14.8913145,18.8913136,16,17.5236816,16H4.5 c-0.1326008,0-0.2597704,0.0526752-0.3535318,0.1464405l-1.7322698,1.7323017C1.5087014,18.7842579,1,20.0123882,1,21.2929668 v0.0000019l4.1465755-4.1465759C5.2403097,17.05266,5.3674402,17,5.5,17H20c0.5522842,0,1-0.4477158,1-1V3 C21,2.4487305,20.5517578,2,20,2z" opacity=".1"/><path fill="#303C42" d="M16.5,7h-11C5.2236328,7,5,6.7763672,5,6.5S5.2236328,6,5.5,6h11C16.7763672,6,17,6.2236328,17,6.5 S16.7763672,7,16.5,7z"/><path fill="#303C42" d="M15.4990234,10H5.5C5.2236328,10,5,9.7763672,5,9.5S5.2236328,9,5.5,9h9.9990234 c0.2763672,0,0.5,0.2236328,0.5,0.5S15.7753906,10,15.4990234,10z"/><path fill="#303C42" d="M11.5,13h-6C5.2236328,13,5,12.7763672,5,12.5S5.2236328,12,5.5,12h6c0.2763672,0,0.5,0.2236328,0.5,0.5 S11.7763672,13,11.5,13z"/><path fill="#303C42" d="M22.0859375,3c-0.5048828,0-0.9980469,0.2045898-1.3535156,0.5605469l-6.0859375,6.0849609 c-0.0703125,0.0698242-0.1171875,0.1586914-0.1367188,0.2553711l-0.5,2.5009766 c-0.0332031,0.1640625,0.0185547,0.3334961,0.1367188,0.4516602C14.2412109,12.9482422,14.3691406,13,14.5,13 c0.0322266,0,0.0654297-0.003418,0.0976562-0.0097656l2.4990234-0.5c0.0976562-0.0195312,0.1865234-0.0668945,0.2558594-0.1367188 l5.0004272-4.9996338c0,0,0.0003662-0.0001831,0.0005493-0.0003662s0.0001831-0.0003052,0.0001831-0.0003052l1.0857544-1.0856323 c0,0,0,0,0-0.0004883C23.7958984,5.9106445,24,5.4174805,24,4.9140625C24,3.8583984,23.1416016,3,22.0859375,3z"/><polygon fill="#FFF" points="16.7529297,11.5395508 15.1376953,11.862793 15.4609375,10.2456055 19.9997559,5.7067871 21.2929077,6.999939"/><path fill="#FFCA28" d="M22.7324219,5.5605469L22,6.2929688l-1.2932129-1.2932129l0.732666-0.732666 C21.609375,4.0976562,21.8447266,4,22.0859375,4C22.5898438,4,23,4.4101562,23,4.9140625 C23,5.1542969,22.9023438,5.3901367,22.7324219,5.5605469z"/><linearGradient id="_YuPqeaZCKsiwt9bmAm2Wa" x1="16.897" x2="22.103" y1="10.103" y2="15.31" gradientUnits="userSpaceOnUse"><stop offset="0" stop-opacity=".1"/><stop offset="1" stop-opacity="0"/></linearGradient><path fill="url(#_YuPqeaZCKsiwt9bmAm2Wa)" d="M17.3525391,12.3535156c-0.0693359,0.0698242-0.1582031,0.1171875-0.2558594,0.1367188 l-2.4990234,0.5C14.5654297,12.996582,14.5322266,13,14.5,13c-0.1308594,0-0.2587891-0.0517578-0.3535156-0.1464844L18.2929688,17 H20c0.5517578,0,1-0.4487305,1-1V8.706604L17.3525391,12.3535156z"/><linearGradient id="_YuPqeaZCKsiwt9bmAm2Wb" x1="-1.757" x2="21.633" y1="6.324" y2="17.23" gradientUnits="userSpaceOnUse"><stop offset="0" stop-color="#fff" stop-opacity=".2"/><stop offset="1" stop-color="#fff" stop-opacity="0"/></linearGradient><path fill="url(#_YuPqeaZCKsiwt9bmAm2Wb)" d="M22.0859375,3C22.0569458,3,22.0288696,3.0072632,22,3.008606V3c0-1.1030273-0.8974609-2-2-2H2 C0.8974609,1,0,1.8969727,0,3v19.5c0,0.2021484,0.1220703,0.3847656,0.3085938,0.4619141C0.3701172,22.987793,0.4355469,23,0.5,23 c0.1298828,0,0.2578125-0.0507812,0.3535156-0.1464844L5.7070312,18H20c1.1025391,0,2-0.8969727,2-2V7.7067871l0.3529663-0.3529053 c0,0,0.0003662-0.0001831,0.0005493-0.0003662s0.0001831-0.0003052,0.0001831-0.0003052l1.0857544-1.0856323c0,0,0,0,0-0.0004883 C23.7958984,5.9106445,24,5.4174805,24,4.9140625C24,3.8583984,23.1416016,3,22.0859375,3z"/></svg>