<svg xmlns="http://www.w3.org/2000/svg"  viewBox="0 0 24 24" width="24px" height="24px"><path fill="#FFF" d="M3,4.75c-0.551,0-1,0.449-1,1v12.5c0,0.551,0.449,1,1,1h18c0.551,0,1-0.449,1-1V7.75c0-0.551-0.449-1-1-1	H10.25c-0.265,0-0.52-0.105-0.707-0.293L7.836,4.75H3L3,4.75z"/><path fill="#607D8B" d="M21,21.25H3c-1.654,0-3-1.346-3-3V5.75c0-1.654,1.346-3,3-3h5.25c0.265,0,0.52,0.105,0.707,0.293	l1.707,1.707H21c1.654,0,3,1.346,3,3v10.5C24,19.904,22.654,21.25,21,21.25L21,21.25z M3,4.75c-0.551,0-1,0.449-1,1v12.5	c0,0.551,0.449,1,1,1h18c0.551,0,1-0.449,1-1V7.75c0-0.551-0.449-1-1-1H10.25c-0.265,0-0.52-0.105-0.707-0.293L7.836,4.75H3L3,4.75z"/><path fill="#DEDEDE" d="M7.836,4.75H3c-0.551,0-1,0.449-1,1v12.5c0,0.551,0.449,1,1,1h9V6.75h-1.75c-0.265,0-0.52-0.105-0.707-0.293	L7.836,4.75L7.836,4.75z"/><path fill="#546D79" d="M8.25,2.75H3c-1.654,0-3,1.346-3,3v12.5c0,1.654,1.346,3,3,3h9v-2H3c-0.551,0-1-0.449-1-1V5.75	c0-0.551,0.449-1,1-1h4.836l1.707,1.707C9.73,6.645,9.985,6.75,10.25,6.75H12v-2h-1.336L8.958,3.043	C8.77,2.855,8.516,2.75,8.25,2.75L8.25,2.75z"/><path fill="#FFC107" d="M8.5,16.25c-0.169,0-0.339-0.057-0.479-0.174l-3-2.5C4.849,13.434,4.75,13.223,4.75,13	c0-0.223,0.099-0.434,0.27-0.576l3-2.5c0.319-0.265,0.791-0.222,1.056,0.096c0.265,0.318,0.222,0.791-0.096,1.056L6.671,13	l2.309,1.924c0.318,0.265,0.361,0.738,0.096,1.056C8.928,16.158,8.714,16.25,8.5,16.25L8.5,16.25z"/><path fill="#FFC107" d="M14.501,16.25c-0.215,0-0.428-0.092-0.577-0.27c-0.265-0.318-0.222-0.791,0.096-1.056L16.329,13	l-2.309-1.924c-0.318-0.265-0.361-0.738-0.096-1.056c0.266-0.319,0.739-0.361,1.056-0.096l3,2.5c0.171,0.143,0.27,0.354,0.27,0.576	c0,0.223-0.099,0.434-0.27,0.576l-3,2.5C14.84,16.193,14.669,16.25,14.501,16.25L14.501,16.25z"/><path fill="#FFC107" d="M10.294,17.221c-0.398-0.114-0.629-0.529-0.515-0.927l2-7c0.114-0.398,0.529-0.628,0.927-0.515	c0.398,0.114,0.629,0.529,0.515,0.927l-2,7C11.107,17.105,10.692,17.334,10.294,17.221L10.294,17.221z"/><path fill="#DEA806" d="M6.728,12.953H4.751C4.75,12.969,4.75,12.984,4.75,13c0,0.223,0.099,0.434,0.27,0.576l3,2.5	C8.16,16.193,8.33,16.25,8.5,16.25c0.215,0,0.428-0.092,0.577-0.27c0.265-0.318,0.222-0.791-0.096-1.056L6.671,13L6.728,12.953	L6.728,12.953z"/><path fill="#DEA806" d="M18.249,12.953h-1.976L16.329,13l-2.309,1.924c-0.318,0.265-0.361,0.738-0.096,1.056	c0.148,0.178,0.362,0.27,0.577,0.27c0.169,0,0.339-0.057,0.479-0.174l3-2.5c0.171-0.143,0.27-0.354,0.27-0.576	C18.25,12.984,18.25,12.969,18.249,12.953L18.249,12.953z"/><path fill="#DEA806" d="M12.293,12.953h-1.56l-0.955,3.341c-0.114,0.398,0.117,0.813,0.515,0.927	c0.069,0.02,0.138,0.029,0.206,0.029c0.327,0,0.627-0.214,0.721-0.544L12.293,12.953L12.293,12.953z"/></svg>