<svg xmlns="http://www.w3.org/2000/svg"  viewBox="0 0 40 40" width="40px" height="40px"><path fill="#e1ebf2" d="M8.121,2.5H34.5v28.329c0,0.446-0.363,0.81-0.81,0.811l-25.57,0.02V2.5z"/><path fill="#66798f" d="M34,3v27.829c0,0.171-0.139,0.31-0.31,0.31L8.621,31.158V3H34 M35,2H7.621v30.159l26.07-0.02 C34.414,32.138,35,31.552,35,30.829V2L35,2z"/><path fill="#b0c1d4" d="M5.5,32.948V5c0-1.378,1.122-2.5,2.5-2.5h0.431v30.448H5.5z"/><path fill="#66798f" d="M7.931,3.001v29.447H6V5C6,3.92,6.86,3.038,7.931,3.001 M8.931,2H8C6.343,2,5,3.343,5,5v28.448 h3.931V2L8.931,2z"/><path fill="#b0c1d4" d="M9,3H8C6.895,3,6,3.895,6,5v28h3V3z"/><path fill="#bae0bd" d="M16 7.5A1.5 1.5 0 1 0 16 10.5A1.5 1.5 0 1 0 16 7.5Z"/><path fill="#5e9c76" d="M16,8c0.551,0,1,0.449,1,1s-0.449,1-1,1s-1-0.449-1-1S15.449,8,16,8 M16,7c-1.105,0-2,0.895-2,2 s0.895,2,2,2c1.105,0,2-0.895,2-2S17.105,7,16,7L16,7z"/><path fill="#bae0bd" d="M16 15.5A1.5 1.5 0 1 0 16 18.5A1.5 1.5 0 1 0 16 15.5Z"/><path fill="#5e9c76" d="M16,16c0.551,0,1,0.449,1,1c0,0.551-0.449,1-1,1s-1-0.449-1-1C15,16.449,15.449,16,16,16 M16,15 c-1.105,0-2,0.895-2,2c0,1.105,0.895,2,2,2c1.105,0,2-0.895,2-2C18,15.895,17.105,15,16,15L16,15z"/><g><path fill="#bae0bd" d="M16 23.5A1.5 1.5 0 1 0 16 26.5A1.5 1.5 0 1 0 16 23.5Z"/><path fill="#5e9c76" d="M16,24c0.551,0,1,0.449,1,1s-0.449,1-1,1s-1-0.449-1-1S15.449,24,16,24 M16,23c-1.105,0-2,0.895-2,2 c0,1.105,0.895,2,2,2c1.105,0,2-0.895,2-2C18,23.895,17.105,23,16,23L16,23z"/></g><g><path fill="#fff" d="M7.5,35.5c-1.103,0-2-0.897-2-2s0.897-2,2-2h27v0.274c-0.61,0.353-1,1.008-1,1.726 s0.39,1.373,1,1.726V35.5H7.5z"/><path fill="#66798f" d="M33.505,32C33.185,32.423,33,32.947,33,33.5s0.185,1.077,0.505,1.5H7.5C6.673,35,6,34.327,6,33.5 S6.673,32,7.5,32H33.505 M35,31H7.5C6.119,31,5,32.119,5,33.5C5,34.881,6.119,36,7.5,36H35v-1.092c-0.581-0.207-1-0.756-1-1.408 s0.419-1.202,1-1.408V31L35,31z"/></g><g><path fill="#f78f8f" d="M16 36.375L12.5 39 12.5 33.5 19.5 33.5 19.5 39z"/><path fill="#c74343" d="M19,34v4l-2.4-1.8L16,35.75l-0.6,0.45L13,38v-4H19 M20,33h-8v7l4-3l4,3V33L20,33z"/></g><path fill="#f78f8f" d="M13 33H19V35H13z"/></svg>