<svg xmlns="http://www.w3.org/2000/svg"  viewBox="0 0 64 64" width="64px" height="64px"><path d="M 11 2 L 11 4 L 13 4 L 13 2 L 11 2 z M 54 2 A 8 8 0 1 0 62 10 A 8.009 8.009 0 0 0 54 2 z M 53.75 4.0058594 A 6 6 0 0 1 60 10 A 6.006 6.006 0 0 1 54 16 A 6 6 0 0 1 53.75 4.0058594 z M 53 5 L 53 6.0507812 A 2.5 2.5 0 0 0 53.5 11 L 54.5 11 A 0.5 0.5 0 0 1 54.5 12 L 53.5 12 A 0.5 0.5 0 0 1 53 11.5 L 51 11.5 A 2.5 2.5 0 0 0 53 13.949219 L 53 15 L 55 15 L 55 13.949219 A 2.5 2.5 0 0 0 54.5 9 L 53.5 9 A 0.5 0.5 0 0 1 53.5 8 L 54.5 8 A 0.5 0.5 0 0 1 55 8.5 L 57 8.5 A 2.5 2.5 0 0 0 55 6.0507812 L 55 5 L 53 5 z M 12.1875 6 A 6 6 0 0 0 7.4199219 15.873047 A 6.187 6.187 0 0 1 9 19.787109 L 9 20 A 3 3 0 0 0 15 20 L 15 19.820312 A 5.3 5.3 0 0 1 16.347656 16.132812 A 6 6 0 0 0 12.1875 6 z M 20.744141 6.953125 L 18.953125 7.8417969 L 19.841797 9.6328125 L 21.632812 8.7441406 L 20.744141 6.953125 z M 3.2558594 6.9550781 L 2.3671875 8.7460938 L 4.1582031 9.6328125 L 5.046875 7.84375 L 3.2558594 6.9550781 z M 11.992188 8 A 4.316 4.316 0 0 1 12.867188 8.0917969 A 4 4 0 0 1 14.900391 14.755859 A 6.722 6.722 0 0 0 13.5 17 L 10.429688 17 A 9.088 9.088 0 0 0 8.9433594 14.582031 A 4 4 0 0 1 9.4785156 8.9003906 A 3.941 3.941 0 0 1 11.992188 8 z M 25 9 L 25 11 L 43 11 L 43 9 L 25 9 z M 4.6445312 15.330078 L 2.9238281 16.351562 L 3.9453125 18.072266 L 5.6660156 17.050781 L 4.6445312 15.330078 z M 19.355469 15.337891 L 18.337891 17.056641 L 20.056641 18.076172 L 21.076172 16.355469 L 19.355469 15.337891 z M 10.951172 19 L 13.042969 19 C 13.016969 19.27 13 19.543312 13 19.820312 L 13 20 A 1 1 0 0 1 11 20 L 11 19.787109 A 6.931 6.931 0 0 0 10.951172 19 z M 36.755859 22.9375 A 14.032 14.032 0 1 0 46.158203 47.572266 L 49.021484 50.435547 L 48.3125 51.142578 A 1 1 0 0 0 48.3125 52.556641 L 56.800781 61.042969 A 1 1 0 0 0 58.214844 61.042969 L 61.042969 58.212891 A 1 1 0 0 0 61.042969 56.798828 L 52.556641 48.3125 A 1 1 0 0 0 51.142578 48.3125 L 50.435547 49.021484 L 47.572266 46.158203 A 14.032 14.032 0 0 0 36.755859 22.9375 z M 36.675781 25.003906 A 12 12 0 0 1 49 37 A 11.919 11.919 0 0 1 45.484375 45.484375 A 12 12 0 1 1 36.675781 25.003906 z M 9 26 L 9 43 L 11 43 L 11 26 L 9 26 z M 37.111328 26.976562 A 4 4 0 0 0 34.382812 34 L 34 34 A 3 3 0 0 0 31 37 L 31 44 A 1 1 0 0 0 32 45 L 42 45 A 1 1 0 0 0 43 44 L 43 37 A 3 3 0 0 0 40 34 L 39.617188 34 A 4 4 0 0 0 37.111328 26.976562 z M 37 29 A 2 2 0 1 1 35 31 A 2 2 0 0 1 37 29 z M 34 36 L 40 36 A 1 1 0 0 1 41 37 L 41 43 L 33 43 L 33 37 A 1 1 0 0 1 34 36 z M 8.8710938 46 A 1.69 1.69 0 0 0 7.171875 47.671875 L 7.171875 47.900391 A 6.939 6.939 0 0 0 5.9296875 48.59375 L 5.6679688 48.449219 A 1.712 1.712 0 0 0 3.3671875 49.054688 L 2.2382812 50.916016 A 1.635 1.635 0 0 0 2.0566406 52.193359 A 1.694 1.694 0 0 0 2.8671875 53.228516 L 3.0839844 53.345703 A 6.307 6.307 0 0 0 3.0839844 54.654297 L 2.8671875 54.773438 A 1.689 1.689 0 0 0 2.0566406 55.806641 A 1.636 1.636 0 0 0 2.2382812 57.082031 L 3.3652344 58.951172 A 1.712 1.712 0 0 0 5.6660156 59.550781 L 5.9257812 59.40625 A 6.946 6.946 0 0 0 7.1699219 60.101562 L 7.1699219 60.324219 A 1.69 1.69 0 0 0 8.8710938 62 L 11.128906 62 A 1.69 1.69 0 0 0 12.828125 60.328125 L 12.828125 60.105469 A 6.939 6.939 0 0 0 14.070312 59.410156 L 14.335938 59.556641 A 1.712 1.712 0 0 0 16.634766 58.949219 L 17.761719 57.083984 A 1.635 1.635 0 0 0 17.943359 55.806641 A 1.694 1.694 0 0 0 17.132812 54.771484 L 16.916016 54.654297 A 6.307 6.307 0 0 0 16.916016 53.345703 L 17.132812 53.226562 A 1.689 1.689 0 0 0 17.943359 52.193359 A 1.636 1.636 0 0 0 17.761719 50.917969 L 16.634766 49.048828 A 1.712 1.712 0 0 0 14.333984 48.449219 L 14.074219 48.59375 A 6.946 6.946 0 0 0 12.830078 47.898438 L 12.830078 47.675781 A 1.69 1.69 0 0 0 11.128906 46 L 8.8710938 46 z M 9.1757812 48 L 10.837891 48 L 10.837891 48.123047 A 1.687 1.687 0 0 0 11.923828 49.679688 A 5.054 5.054 0 0 1 13.023438 50.289062 A 1.752 1.752 0 0 0 14.896484 50.423828 L 15.074219 50.322266 L 15.875 51.642578 L 15.767578 51.701172 A 1.642 1.642 0 0 0 14.916016 53.371094 A 4.211 4.211 0 0 1 14.949219 54 A 4.325 4.325 0 0 1 14.904297 54.626953 A 1.644 1.644 0 0 0 15.757812 56.300781 L 15.863281 56.357422 L 15.0625 57.675781 L 14.884766 57.576172 A 1.758 1.758 0 0 0 13.013672 57.710938 A 4.986 4.986 0 0 1 11.914062 58.318359 A 1.689 1.689 0 0 0 10.828125 59.876953 L 10.828125 60 L 9.1699219 60 L 9.1699219 59.876953 A 1.687 1.687 0 0 0 8.0820312 58.320312 A 5.054 5.054 0 0 1 6.9824219 57.710938 A 1.75 1.75 0 0 0 5.109375 57.576172 L 4.9316406 57.677734 L 4.1328125 56.357422 L 4.2382812 56.298828 A 1.642 1.642 0 0 0 5.0917969 54.628906 A 4.211 4.211 0 0 1 5.0507812 54 A 4.325 4.325 0 0 1 5.0957031 53.373047 A 1.644 1.644 0 0 0 4.2421875 51.699219 L 4.1367188 51.642578 L 4.9375 50.324219 L 5.1152344 50.423828 A 1.753 1.753 0 0 0 6.9902344 50.289062 A 4.986 4.986 0 0 1 8.0898438 49.681641 A 1.689 1.689 0 0 0 9.1757812 48.123047 L 9.1757812 48 z M 51.849609 50.435547 L 58.921875 57.505859 L 57.505859 58.921875 L 50.435547 51.849609 L 51.849609 50.435547 z M 10 50.5 A 3.5 3.5 0 1 0 13.5 54 A 3.5 3.5 0 0 0 10 50.5 z M 9.9375 52.501953 A 1.5 1.5 0 0 1 11.5 54 A 1.5 1.5 0 0 1 10 55.5 A 1.5 1.5 0 0 1 9.9375 52.501953 z"/></svg>