<svg xmlns="http://www.w3.org/2000/svg"  viewBox="0 0 48 48" width="48px" height="48px"><linearGradient id="X0uX8QTG9QLsDreDgdAsWa" x1="14.623" x2="14.623" y1="-25" y2="-59" gradientTransform="matrix(1.03 0 0 -1 8.938 -18)" gradientUnits="userSpaceOnUse"><stop offset="0" stop-color="#039be5"/><stop offset="1" stop-color="#1e88e5"/></linearGradient><path fill="url(#X0uX8QTG9QLsDreDgdAsWa)" d="M10,7h28c1.657,0,3,1.343,3,3v28c0,1.657-1.343,3-3,3H10c-1.657,0-3-1.343-3-3V10	C7,8.343,8.343,7,10,7z"/><g opacity=".66"><linearGradient id="X0uX8QTG9QLsDreDgdAsWb" x1="-1.881" x2="31.128" y1="-42" y2="-42" gradientTransform="matrix(1.03 0 0 -1 8.938 -18)" gradientUnits="userSpaceOnUse"><stop offset="0" stop-color="#0d47a1" stop-opacity="0"/><stop offset=".434" stop-color="#0d47a1" stop-opacity=".016"/><stop offset=".59" stop-color="#0d47a1" stop-opacity=".072"/><stop offset=".701" stop-color="#0d47a1" stop-opacity=".1"/><stop offset=".791" stop-color="#0d47a1" stop-opacity=".15"/><stop offset=".868" stop-color="#0d47a1" stop-opacity=".3"/><stop offset=".935" stop-color="#0d47a1" stop-opacity=".7"/><stop offset=".968" stop-color="#0d47a1"/><stop offset="1" stop-color="#0d47a1"/></linearGradient><path fill="url(#X0uX8QTG9QLsDreDgdAsWb)" d="M10,7h28c1.657,0,3,1.343,3,3v28c0,1.657-1.343,3-3,3H10c-1.657,0-3-1.343-3-3V10 C7,8.343,8.343,7,10,7z"/><linearGradient id="X0uX8QTG9QLsDreDgdAsWc" x1="-924.039" x2="-891.029" y1="162" y2="162" gradientTransform="matrix(0 -1.03 -1 0 186 -910.938)" gradientUnits="userSpaceOnUse"><stop offset="0" stop-color="#0d47a1" stop-opacity="0"/><stop offset=".434" stop-color="#0d47a1" stop-opacity=".016"/><stop offset=".59" stop-color="#0d47a1" stop-opacity=".072"/><stop offset=".701" stop-color="#0d47a1" stop-opacity=".1"/><stop offset=".791" stop-color="#0d47a1" stop-opacity=".15"/><stop offset=".868" stop-color="#0d47a1" stop-opacity=".3"/><stop offset=".935" stop-color="#0d47a1" stop-opacity=".7"/><stop offset=".968" stop-color="#0d47a1"/><stop offset="1" stop-color="#0d47a1"/></linearGradient><path fill="url(#X0uX8QTG9QLsDreDgdAsWc)" d="M7,38V10c0-1.657,1.343-3,3-3h28c1.657,0,3,1.343,3,3v28c0,1.657-1.343,3-3,3H10 C8.343,41,7,39.657,7,38z"/><linearGradient id="X0uX8QTG9QLsDreDgdAsWd" x1="-726.116" x2="-693.107" y1="1112" y2="1112" gradientTransform="matrix(-1.03 0 0 1 -706.938 -1088)" gradientUnits="userSpaceOnUse"><stop offset="0" stop-color="#0d47a1" stop-opacity="0"/><stop offset=".434" stop-color="#0d47a1" stop-opacity=".016"/><stop offset=".59" stop-color="#0d47a1" stop-opacity=".072"/><stop offset=".701" stop-color="#0d47a1" stop-opacity=".1"/><stop offset=".791" stop-color="#0d47a1" stop-opacity=".15"/><stop offset=".868" stop-color="#0d47a1" stop-opacity=".3"/><stop offset=".935" stop-color="#0d47a1" stop-opacity=".7"/><stop offset=".968" stop-color="#0d47a1"/><stop offset="1" stop-color="#0d47a1"/></linearGradient><path fill="url(#X0uX8QTG9QLsDreDgdAsWd)" d="M38,41H10c-1.657,0-3-1.343-3-3V10c0-1.657,1.343-3,3-3h28c1.657,0,3,1.343,3,3v28 C41,39.657,39.657,41,38,41z"/><linearGradient id="X0uX8QTG9QLsDreDgdAsWe" x1="196.039" x2="229.048" y1="908" y2="908" gradientTransform="matrix(0 1.03 1 0 -884 -195.062)" gradientUnits="userSpaceOnUse"><stop offset="0" stop-color="#0d47a1" stop-opacity="0"/><stop offset=".434" stop-color="#0d47a1" stop-opacity=".016"/><stop offset=".59" stop-color="#0d47a1" stop-opacity=".072"/><stop offset=".701" stop-color="#0d47a1" stop-opacity=".1"/><stop offset=".791" stop-color="#0d47a1" stop-opacity=".15"/><stop offset=".868" stop-color="#0d47a1" stop-opacity=".3"/><stop offset=".935" stop-color="#0d47a1" stop-opacity=".7"/><stop offset=".968" stop-color="#0d47a1"/><stop offset="1" stop-color="#0d47a1"/></linearGradient><path fill="url(#X0uX8QTG9QLsDreDgdAsWe)" d="M41,10v28c0,1.657-1.343,3-3,3H10c-1.657,0-3-1.343-3-3V10c0-1.657,1.343-3,3-3h28 C39.657,7,41,8.343,41,10z"/></g><linearGradient id="X0uX8QTG9QLsDreDgdAsWf" x1="12.755" x2="12.421" y1="9.372" y2="39.038" gradientUnits="userSpaceOnUse"><stop offset="0" stop-color="#fff"/><stop offset=".325" stop-color="#fbfbfc"/><stop offset=".662" stop-color="#eeeef4"/><stop offset="1" stop-color="#dadae6"/></linearGradient><path fill="url(#X0uX8QTG9QLsDreDgdAsWf)" d="M11.128,34.087c0.086,0.166,0.201,0.302,0.345,0.404c0.144,0.104,0.312,0.181,0.505,0.23 s0.394,0.075,0.6,0.075c0.141,0,0.29-0.012,0.45-0.035c0.16-0.023,0.311-0.068,0.45-0.135s0.257-0.158,0.35-0.275 c0.094-0.116,0.141-0.265,0.141-0.445c0-0.192-0.062-0.35-0.186-0.47c-0.123-0.12-0.285-0.22-0.484-0.3 c-0.2-0.08-0.427-0.15-0.681-0.21c-0.253-0.061-0.51-0.127-0.77-0.2c-0.267-0.066-0.526-0.148-0.78-0.245 c-0.253-0.097-0.479-0.222-0.68-0.375c-0.2-0.153-0.362-0.345-0.485-0.575c-0.123-0.229-0.185-0.508-0.185-0.835 c0-0.366,0.078-0.685,0.234-0.955c0.157-0.27,0.362-0.494,0.615-0.675c0.254-0.18,0.54-0.313,0.86-0.399 c0.319-0.087,0.64-0.13,0.96-0.13c0.373,0,0.731,0.041,1.075,0.125c0.343,0.083,0.647,0.218,0.915,0.404 c0.267,0.187,0.478,0.425,0.635,0.715c0.156,0.29,0.234,0.643,0.234,1.056h-1.52c-0.014-0.214-0.059-0.391-0.135-0.53 c-0.077-0.14-0.179-0.25-0.306-0.33c-0.126-0.08-0.271-0.137-0.435-0.17s-0.342-0.05-0.535-0.05c-0.127,0-0.253,0.014-0.38,0.04 c-0.127,0.026-0.241,0.073-0.345,0.14s-0.188,0.15-0.255,0.25c-0.067,0.101-0.101,0.227-0.101,0.38c0,0.141,0.026,0.254,0.08,0.34 c0.054,0.087,0.158,0.167,0.315,0.24c0.156,0.073,0.373,0.146,0.649,0.22c0.277,0.074,0.639,0.167,1.085,0.28 c0.134,0.027,0.318,0.075,0.556,0.146c0.236,0.069,0.472,0.182,0.705,0.335c0.232,0.153,0.435,0.358,0.604,0.614 c0.17,0.257,0.255,0.586,0.255,0.985c0,0.327-0.063,0.63-0.189,0.91c-0.127,0.28-0.315,0.521-0.565,0.725 c-0.25,0.204-0.56,0.362-0.93,0.476s-0.799,0.17-1.285,0.17c-0.394,0-0.775-0.049-1.146-0.146 c-0.369-0.097-0.696-0.248-0.979-0.455c-0.283-0.206-0.509-0.47-0.675-0.79c-0.167-0.319-0.247-0.699-0.24-1.14h1.52 C10.997,33.717,11.041,33.92,11.128,34.087z"/><linearGradient id="X0uX8QTG9QLsDreDgdAsWg" x1="19.874" x2="19.541" y1="9.452" y2="39.118" gradientUnits="userSpaceOnUse"><stop offset="0" stop-color="#fff"/><stop offset=".325" stop-color="#fbfbfc"/><stop offset=".662" stop-color="#eeeef4"/><stop offset="1" stop-color="#dadae6"/></linearGradient><path fill="url(#X0uX8QTG9QLsDreDgdAsWg)" d="M16.348,30.821c0.159-0.456,0.39-0.854,0.689-1.194s0.669-0.606,1.105-0.8 s0.928-0.29,1.475-0.29c0.554,0,1.047,0.097,1.48,0.29c0.433,0.193,0.8,0.46,1.1,0.8s0.53,0.738,0.69,1.194 c0.159,0.457,0.239,0.952,0.239,1.485c0,0.521-0.08,1.005-0.239,1.455c-0.16,0.45-0.391,0.842-0.69,1.175 c-0.3,0.334-0.667,0.595-1.1,0.785c-0.434,0.19-0.927,0.285-1.48,0.285c-0.547,0-1.038-0.095-1.475-0.285s-0.806-0.451-1.105-0.785 c-0.3-0.333-0.53-0.725-0.689-1.175c-0.16-0.45-0.24-0.935-0.24-1.455C16.107,31.773,16.187,31.278,16.348,30.821z M17.782,33.182 c0.07,0.283,0.182,0.538,0.335,0.765c0.153,0.228,0.354,0.409,0.601,0.545c0.246,0.137,0.546,0.205,0.899,0.205 s0.653-0.068,0.9-0.205c0.246-0.136,0.446-0.317,0.6-0.545c0.153-0.227,0.265-0.481,0.335-0.765s0.105-0.575,0.105-0.875 c0-0.313-0.035-0.616-0.105-0.91c-0.07-0.293-0.182-0.555-0.335-0.785c-0.153-0.229-0.354-0.413-0.6-0.55 c-0.247-0.137-0.547-0.205-0.9-0.205s-0.653,0.068-0.899,0.205c-0.247,0.137-0.447,0.32-0.601,0.55 c-0.153,0.23-0.265,0.492-0.335,0.785c-0.07,0.294-0.104,0.597-0.104,0.91C17.678,32.606,17.712,32.898,17.782,33.182z"/><linearGradient id="X0uX8QTG9QLsDreDgdAsWh" x1="27.653" x2="27.32" y1="9.539" y2="39.206" gradientUnits="userSpaceOnUse"><stop offset="0" stop-color="#fff"/><stop offset=".325" stop-color="#fbfbfc"/><stop offset=".662" stop-color="#eeeef4"/><stop offset="1" stop-color="#dadae6"/></linearGradient><path fill="url(#X0uX8QTG9QLsDreDgdAsWh)" d="M24.128,30.821c0.159-0.456,0.39-0.854,0.689-1.194s0.669-0.606,1.105-0.8 s0.928-0.29,1.475-0.29c0.554,0,1.047,0.097,1.48,0.29c0.433,0.193,0.8,0.46,1.1,0.8s0.53,0.738,0.69,1.194 c0.159,0.457,0.239,0.952,0.239,1.485c0,0.521-0.08,1.005-0.239,1.455c-0.16,0.45-0.391,0.842-0.69,1.175 c-0.3,0.334-0.667,0.595-1.1,0.785c-0.434,0.19-0.927,0.285-1.48,0.285c-0.547,0-1.038-0.095-1.475-0.285s-0.806-0.451-1.105-0.785 c-0.3-0.333-0.53-0.725-0.689-1.175c-0.16-0.45-0.24-0.935-0.24-1.455C23.888,31.773,23.968,31.278,24.128,30.821z M25.562,33.182 c0.07,0.283,0.182,0.538,0.335,0.765c0.153,0.228,0.354,0.409,0.601,0.545c0.246,0.137,0.546,0.205,0.899,0.205 s0.653-0.068,0.9-0.205c0.246-0.136,0.446-0.317,0.6-0.545c0.153-0.227,0.265-0.481,0.335-0.765s0.105-0.575,0.105-0.875 c0-0.313-0.035-0.616-0.105-0.91c-0.07-0.293-0.182-0.555-0.335-0.785c-0.153-0.229-0.354-0.413-0.6-0.55 c-0.247-0.137-0.547-0.205-0.9-0.205s-0.653,0.068-0.899,0.205c-0.247,0.137-0.447,0.32-0.601,0.55 c-0.153,0.23-0.265,0.492-0.335,0.785c-0.07,0.294-0.104,0.597-0.104,0.91C25.458,32.606,25.492,32.898,25.562,33.182z"/><linearGradient id="X0uX8QTG9QLsDreDgdAsWi" x1="35.247" x2="34.914" y1="9.624" y2="39.291" gradientUnits="userSpaceOnUse"><stop offset="0" stop-color="#fff"/><stop offset=".325" stop-color="#fbfbfc"/><stop offset=".662" stop-color="#eeeef4"/><stop offset="1" stop-color="#dadae6"/></linearGradient><path fill="url(#X0uX8QTG9QLsDreDgdAsWi)" d="M33.537,28.707l2.98,4.79h0.02v-4.79h1.471v7.14h-1.57l-2.97-4.78h-0.021v4.78h-1.47v-7.14 H33.537z"/><linearGradient id="X0uX8QTG9QLsDreDgdAsWj" x1="31.706" x2="31.372" y1="9.585" y2="39.251" gradientUnits="userSpaceOnUse"><stop offset="0" stop-color="#fff"/><stop offset=".325" stop-color="#fbfbfc"/><stop offset=".662" stop-color="#eeeef4"/><stop offset="1" stop-color="#dadae6"/></linearGradient><path fill="url(#X0uX8QTG9QLsDreDgdAsWj)" d="M28.854,11.354l6.293,6.293c0.195,0.195,0.195,0.512,0,0.707l-6.293,6.293	C28.539,24.961,28,24.738,28,24.293V11.707C28,11.262,28.539,11.039,28.854,11.354z"/><g><linearGradient id="X0uX8QTG9QLsDreDgdAsWk" x1="23.185" x2="22.852" y1="9.489" y2="39.156" gradientUnits="userSpaceOnUse"><stop offset="0" stop-color="#fff"/><stop offset=".325" stop-color="#fbfbfc"/><stop offset=".662" stop-color="#eeeef4"/><stop offset="1" stop-color="#dadae6"/></linearGradient><rect width="18.179" height="4" x="14" y="16" fill="url(#X0uX8QTG9QLsDreDgdAsWk)"/></g></svg>