<svg xmlns="http://www.w3.org/2000/svg"  viewBox="0 0 80 80" width="80px" height="80px"><path fill="#b0c1d4" d="M8.878,2.629l10.904,6.504l2.142,6.621l0.037,0.115l0.085,0.085L45.293,39.2L39.2,45.293 L15.954,22.046l-0.085-0.085l-0.115-0.037l-6.621-2.142L2.629,8.878L8.878,2.629"/><path fill="#66798f" d="M8.956,3.258l10.408,6.208l2.084,6.442l0.074,0.229l0.17,0.17L44.586,39.2L39.2,44.586 L16.307,21.693l-0.17-0.17l-0.229-0.074l-6.442-2.084L3.258,8.956L8.956,3.258 M8.8,2L2,8.8l6.8,11.4l6.8,2.2L39.2,46l6.8-6.8 L22.4,15.6l-2.2-6.8L8.8,2L8.8,2z"/><path fill="#f78f8f" d="M36.707,48.541L63.091,75.06c1.622,1.619,3.651,2.44,6.03,2.44c2.289,0,4.462-0.905,5.813-2.421 c2.243-2.115,3.094-5.242,2.252-8.191c-0.398-1.396-1.167-2.658-2.222-3.651L48.569,36.708L36.707,48.541z"/><path fill="#c74343" d="M48.567,37.415L74.621,63.6c0.99,0.933,1.71,2.117,2.084,3.424c0.791,2.769-0.008,5.704-2.084,7.66 l-0.032,0.03l-0.029,0.033C73.303,76.158,71.27,77,69.121,77c-2.241,0-4.152-0.772-5.676-2.293L37.413,48.543L48.567,37.415 M48.57,36L36,48.54l26.736,26.872C64.532,77.204,66.727,78,69.121,78c2.195,0,4.589-0.796,6.185-2.588 c2.428-2.288,3.215-5.667,2.359-8.663c-0.41-1.435-1.196-2.782-2.359-3.878L48.57,36L48.57,36z"/><path fill="#c74343" d="M61 49.479H62V73.521H61z" transform="rotate(-45.001 61.5 61.501)"/><g><path fill="#dcd5f2" d="M46.575,18.575l-41,41c-4.094,4.094-4.094,10.756,0,14.85C7.56,76.408,10.196,77.5,13,77.5 s5.44-1.092,7.425-3.075l41-41L46.575,18.575z M13,70.5c-1.933,0-3.5-1.567-3.5-3.5s1.567-3.5,3.5-3.5s3.5,1.567,3.5,3.5 S14.933,70.5,13,70.5z"/><path fill="#8b75a1" d="M13,71c-2.206,0-4-1.794-4-4s1.794-4,4-4s4,1.794,4,4S15.206,71,13,71z M13,64c-1.654,0-3,1.346-3,3 s1.346,3,3,3s3-1.346,3-3S14.654,64,13,64z"/><path fill="#8b75a1" d="M61.071,33.071l-41,41C18.182,75.96,15.67,77,13,77s-5.182-1.04-7.071-2.929 c-3.899-3.899-3.899-10.243,0-14.142l41-41l-0.707-0.707l-41,41c-4.296,4.296-4.296,11.261,0,15.557C7.37,76.926,10.185,78,13,78 s5.63-1.074,7.778-3.222l41-41L61.071,33.071z"/></g><g><path fill="#dcd5f2" d="M57.75,2.5c1.992,0,3.832,0.316,5.966,1.025l0.776,0.258L51.538,16.516l-0.224,0.22l0.101,0.298 l2.846,8.35l0.078,0.227l0.226,0.082l8.362,3.02l0.301,0.109l0.225-0.228l12.716-12.896l0.277,0.724 c0.709,1.851,1.063,3.895,1.054,6.077c-0.024,5.495-2.428,11.468-5.99,14.871c-2.707,2.703-6.287,4.131-10.355,4.131 c-5.394,0-11.142-2.529-15.76-6.93c-4.425-4.418-6.938-10.161-6.894-15.755c0.034-4.183,1.553-7.938,4.284-10.58 C46.274,4.751,52.148,2.5,57.75,2.5"/><path fill="#8b75a1" d="M57.75,3c1.936,0,3.727,0.308,5.808,1L51.188,16.16l-0.448,0.441l0.203,0.595l2.846,8.35L53.943,26 l0.452,0.163l8.362,3.02l0.602,0.217l0.45-0.456l12.171-12.343c0.686,1.792,1.029,3.775,1.02,5.894 c-0.023,5.368-2.365,11.197-5.843,14.519C68.546,39.622,65.087,41,61.155,41c-5.267,0-10.889-2.479-15.407-6.784 c-4.331-4.324-6.79-9.936-6.747-15.397c0.033-4.048,1.498-7.677,4.137-10.23C46.538,5.194,52.274,3,57.75,3 M57.75,2 c-5.727,0-11.745,2.313-15.319,5.881c-2.823,2.73-4.396,6.613-4.431,10.93c-0.045,5.729,2.516,11.596,7.041,16.113 C49.759,39.42,55.633,42,61.155,42c4.203,0,7.911-1.484,10.708-4.277C75.301,34.439,77.974,28.441,78,22.5 c0.009-2.136-0.324-4.265-1.087-6.258l-0.554-1.449L63.097,28.242l-8.362-3.02l-2.846-8.35L65.426,3.566l-1.552-0.516 C61.688,2.324,59.8,2,57.75,2L57.75,2z"/></g></svg>