<svg xmlns="http://www.w3.org/2000/svg"  viewBox="0 0 66 66" width="64px" height="64px"><path fill="#f3f4fa" d="M62.69,9.76v32.41H3.31V9.76c0-3.42,2.77-6.2,6.2-6.2h46.98C59.91,3.56,62.69,6.34,62.69,9.76z"/><path fill="#e5e7ea" d="M62.68,32.12v10.05H3.31V9.76c0-3.42,2.77-6.2,6.2-6.2h6.99c-3.76,3.02-5.93,6.61-5.93,10.45 c0,10.76,17.04,19.48,38.07,19.48C53.59,33.49,58.33,33.01,62.68,32.12z"/><path fill="#52bee6" d="M62.68,42.17v2.54c0,1.72-0.7,3.26-1.82,4.38c-1.11,1.13-2.66,1.83-4.38,1.83H9.52 c-0.64,0-1.26-0.1-1.86-0.29c-0.19-0.06-0.38-0.13-0.57-0.21c-0.56-0.22-1.07-0.54-1.52-0.92c0,0,0-0.01-0.01-0.01 c-0.16-0.12-0.31-0.26-0.44-0.4C4,47.97,3.31,46.43,3.31,44.71v-2.54H62.68z"/><path fill="#38acd7" d="M62.68,41.35v3.37c0,1.72-0.7,3.26-1.82,4.38c-1.12,1.12-2.66,1.82-4.38,1.82H9.51 c-0.64,0-1.26-0.1-1.85-0.28c-0.19-0.06-0.38-0.13-0.57-0.21c-0.55-0.23-1.06-0.55-1.52-0.92c0,0,0-0.01-0.01-0.01 c-0.15-0.12-0.3-0.26-0.44-0.4C4,47.97,3.31,46.43,3.31,44.71v-2.54h22.83c4.81,1.58,10.98,2.93,17.72,2.93 c5.84,0,11.26-1.67,15.73-2.93C60.68,41.87,61.72,41.58,62.68,41.35z"/><path fill="#ccd0d9" d="M48.78,59.7L48.78,59.7c0-1.51-1.23-2.74-2.74-2.74H19.96c-1.51,0-2.74,1.23-2.74,2.74v0 c0,1.51,1.23,2.74,2.74,2.74h26.07C47.55,62.44,48.78,61.21,48.78,59.7z"/><path fill="#a8b0bb" d="M48.76,59.95c-0.13,1.4-1.31,2.49-2.73,2.49H19.96c-0.75,0-1.44-0.31-1.94-0.8c-0.5-0.5-0.81-1.19-0.81-1.95 c0-1.51,1.23-2.74,2.75-2.74h7.23c3.15,1.9,9.44,3.2,16.66,3.2C45.55,60.16,47.19,60.08,48.76,59.95z"/><path fill="#434a54" d="M62.69,42.86H3.31c-0.38,0-0.7-0.31-0.7-0.7V9.76c0-3.8,3.09-6.89,6.89-6.89h46.98c3.8,0,6.89,3.09,6.89,6.89 v32.41C63.38,42.55,63.07,42.86,62.69,42.86z M4.01,41.47h57.98V9.76c0-3.03-2.47-5.5-5.5-5.5H9.51c-3.03,0-5.5,2.47-5.5,5.5 V41.47z"/><path fill="#434a54" d="M56.49,51.61H9.51c-3.8,0-6.9-3.09-6.9-6.9v-2.54c0-0.38,0.31-0.7,0.7-0.7h59.38c0.38,0,0.7,0.31,0.7,0.7 v2.54C63.38,48.52,60.29,51.61,56.49,51.61z M4.01,42.87v1.85c0,3.04,2.47,5.51,5.51,5.51h46.97c3.04,0,5.51-2.47,5.51-5.51v-1.85 H4.01z"/><polygon fill="#ccd0d9" points="38.85,50.92 43.1,56.95 22.9,56.95 27.15,50.92"/><polygon fill="#a8b0bb" points="40.5,53.26 38.85,50.92 27.15,50.92 25.5,53.26"/><path fill="#434a54" d="M43.1,57.65H22.9c-0.26,0-0.5-0.14-0.62-0.38c-0.12-0.23-0.1-0.51,0.05-0.72l4.24-6.04 c0.13-0.19,0.34-0.3,0.57-0.3h11.71c0.23,0,0.44,0.11,0.57,0.3l4.24,6.04c0.15,0.21,0.17,0.49,0.05,0.72 C43.6,57.51,43.36,57.65,43.1,57.65z M24.24,56.26h17.52l-3.27-4.65H27.51L24.24,56.26z"/><path fill="#434a54" d="M46.04,63.13H19.96c-1.89,0-3.44-1.54-3.44-3.44c0-1.89,1.54-3.44,3.44-3.44h26.07 c1.89,0,3.44,1.54,3.44,3.44C49.47,61.59,47.93,63.13,46.04,63.13z M19.96,57.65c-1.13,0-2.04,0.92-2.04,2.05 c0,1.13,0.92,2.05,2.04,2.05h26.07c1.13,0,2.04-0.92,2.04-2.05c0-1.13-0.92-2.05-2.04-2.05H19.96z"/><path fill="#434a54" d="M34.78,47.06h-3.57c-0.38,0-0.7-0.31-0.7-0.7c0-0.38,0.31-0.7,0.7-0.7h3.57c0.38,0,0.7,0.31,0.7,0.7 C35.48,46.74,35.17,47.06,34.78,47.06z"/><path fill="#ea5764" d="M26.22,9.69v25.96c0,0.84-0.68,1.53-1.53,1.53H10.02c-0.84,0-1.53-0.68-1.53-1.53V9.69 c0-0.84,0.68-1.53,1.53-1.53h14.67C25.54,8.16,26.22,8.84,26.22,9.69z"/><path fill="#db4655" d="M26.22,35.65L26.22,35.65c0,0.84-0.68,1.53-1.53,1.53H10.02c-0.84,0-1.53-0.68-1.53-1.53V9.69 c0-0.85,0.69-1.53,1.53-1.53h4.54c1.03,0,1.77,0.99,1.46,1.97c-0.78,2.42-1.22,5.28-1.22,8.33c0,8.79,3.7,15.9,8.26,15.9 c0.4,0,0.79-0.05,1.17-0.16C25.23,33.93,26.22,34.61,26.22,35.65z"/><path fill="#9dcd6c" d="M57.35,10.05v11.08c0,1.05-0.85,1.89-1.89,1.89H33.6c-1.05,0-1.89-0.85-1.89-1.89V10.05 c0-1.05,0.85-1.89,1.89-1.89h21.86C56.5,8.16,57.35,9.01,57.35,10.05z"/><path fill="#88be4d" d="M57.35,19.48v1.65c0,1.04-0.85,1.9-1.89,1.9H33.6c-1.04,0-1.89-0.85-1.89-1.9V10.05 c0-1.04,0.85-1.89,1.89-1.89h2.59c-1.41,1.1-2.22,2.39-2.22,3.76c0,4.24,10.97,7.67,20.49,7.67 C55.44,19.59,56.41,19.55,57.35,19.48z"/><path fill="#434753" d="M55.46,23.72H33.6c-1.43,0-2.59-1.16-2.59-2.59V10.05c0-1.43,1.16-2.59,2.59-2.59h21.85 c1.43,0,2.59,1.16,2.59,2.59v11.08C58.05,22.56,56.88,23.72,55.46,23.72z M33.6,8.85c-0.66,0-1.2,0.54-1.2,1.2v11.08 c0,0.66,0.54,1.2,1.2,1.2h21.85c0.66,0,1.2-0.54,1.2-1.2V10.05c0-0.66-0.54-1.2-1.2-1.2H33.6z"/><path fill="#434753" d="M24.69,37.87H10.02c-1.23,0-2.22-1-2.22-2.22V9.69c0-1.23,1-2.22,2.22-2.22h14.67c1.23,0,2.22,1,2.22,2.22 v25.96C26.92,36.88,25.92,37.87,24.69,37.87z M10.02,8.85c-0.46,0-0.83,0.37-0.83,0.83v25.96c0,0.46,0.37,0.83,0.83,0.83h14.67 c0.46,0,0.83-0.37,0.83-0.83V9.69c0-0.46-0.37-0.83-0.83-0.83H10.02z"/><path fill="#434753" d="M25.88,37.42c-0.24,0-0.46-0.12-0.6-0.34L8.24,8.97c-0.2-0.33-0.09-0.76,0.23-0.96 c0.33-0.2,0.76-0.09,0.96,0.23l17.04,28.12c0.2,0.33,0.09,0.76-0.23,0.96C26.12,37.39,26,37.42,25.88,37.42z"/><path fill="#434753" d="M8.84,37.42c-0.12,0-0.25-0.03-0.36-0.1c-0.33-0.2-0.43-0.63-0.23-0.96L25.28,8.25 c0.2-0.33,0.63-0.43,0.96-0.23c0.33,0.2,0.43,0.63,0.23,0.96L9.43,37.09C9.3,37.31,9.07,37.42,8.84,37.42z"/><g><path fill="#434753" d="M56.56,23.36c-0.12,0-0.23-0.03-0.34-0.09L31.83,9.43c-0.33-0.19-0.45-0.61-0.26-0.95 c0.19-0.33,0.61-0.45,0.95-0.26L56.9,22.06c0.33,0.19,0.45,0.61,0.26,0.95C57.04,23.24,56.8,23.36,56.56,23.36z"/></g><g><path fill="#434753" d="M32.08,22.95c-0.24,0-0.48-0.13-0.61-0.36c-0.19-0.34-0.07-0.76,0.27-0.95L56.31,7.98 c0.34-0.19,0.76-0.07,0.95,0.27c0.19,0.34,0.07,0.76-0.27,0.95L32.42,22.86C32.31,22.92,32.19,22.95,32.08,22.95z"/></g><g><path fill="#434753" d="M56.65,29.77H31.71c-0.38,0-0.7-0.31-0.7-0.7c0-0.38,0.31-0.7,0.7-0.7h24.94c0.38,0,0.7,0.31,0.7,0.7 C57.35,29.46,57.04,29.77,56.65,29.77z"/></g><g><path fill="#434753" d="M46.42,33.76H31.71c-0.38,0-0.7-0.31-0.7-0.7c0-0.38,0.31-0.7,0.7-0.7h14.71c0.38,0,0.7,0.31,0.7,0.7 C47.12,33.45,46.8,33.76,46.42,33.76z"/></g></svg>